<svg width="5" height="5" viewBox="0 0 5 5" fill="none" xmlns="http://www.w3.org/2000/svg">
<path d="M2.807 5C2.76033 5 2.72067 4.986 2.688 4.958C2.66 4.92533 2.646 4.88567 2.646 4.839V3.831H0.378C0.331333 3.831 0.291667 3.817 0.259 3.789C0.231 3.75633 0.217 3.71667 0.217 3.67V3.39C0.217 3.32 0.242667 3.25 0.294 3.18L2.394 0.219C2.41733 0.181666 2.45233 0.153666 2.499 0.135C2.54567 0.111666 2.597 0.0999997 2.653 0.0999997H3.157C3.20367 0.0999997 3.241 0.116333 3.269 0.149C3.30167 0.177 3.318 0.214333 3.318 0.261V3.222H3.948C3.99467 3.222 4.03433 3.23833 4.067 3.271C4.09967 3.299 4.116 3.33633 4.116 3.383V3.67C4.116 3.71667 4.09967 3.75633 4.067 3.789C4.039 3.817 4.00167 3.831 3.955 3.831H3.318V4.839C3.318 4.88567 3.30167 4.92533 3.269 4.958C3.241 4.986 3.20367 5 3.157 5H2.807ZM2.653 3.236V0.835L0.966 3.236H2.653Z" fill="white"/>
</svg>
