<svg width="186" height="27" viewBox="0 0 186 27" fill="none" xmlns="http://www.w3.org/2000/svg">
<path d="M8.784 4.184H0.432V0.368H21.852V4.184H13.464V26H8.784V4.184ZM46.1571 26H41.2611L37.9851 17.468C37.6971 16.676 37.2531 16.124 36.6531 15.812C36.0531 15.5 35.2731 15.344 34.3131 15.344H29.6691V26H25.0611V0.368H36.0411C38.9451 0.368 41.1531 1.004 42.6651 2.276C44.1771 3.548 44.9331 5.372 44.9331 7.748C44.9331 9.452 44.4771 10.904 43.5651 12.104C42.6771 13.28 41.4051 14.12 39.7491 14.624C41.2611 14.936 42.3531 15.992 43.0251 17.792L46.1571 26ZM35.3931 11.744C37.1451 11.744 38.4411 11.42 39.2811 10.772C40.1211 10.124 40.5411 9.14 40.5411 7.82C40.5411 6.524 40.1211 5.564 39.2811 4.94C38.4651 4.292 37.1691 3.968 35.3931 3.968H29.5971V11.744H35.3931ZM50.3384 0.368H67.4744V4.04H54.8744V11.132H66.7184V14.804H54.8744V22.328H67.4744V26H50.3384V0.368ZM93.3486 0.368V26H89.8926L76.0686 8.036V26H71.7486V0.368H75.2046L88.9926 18.296V0.368H93.3486ZM98.9243 0.368H108.356C112.556 0.368 115.808 1.484 118.112 3.716C120.44 5.948 121.604 9.092 121.604 13.148C121.604 17.228 120.44 20.396 118.112 22.652C115.808 24.884 112.556 26 108.356 26H98.9243V0.368ZM108.068 22.22C113.972 22.22 116.924 19.196 116.924 13.148C116.924 7.148 113.972 4.148 108.068 4.148H103.568V22.22H108.068ZM126.346 0.368H130.99V26H126.346V0.368ZM158.142 0.368V26H154.686L140.862 8.036V26H136.542V0.368H139.998L153.786 18.296V0.368H158.142ZM185.101 12.14V24.452C183.925 25.028 182.509 25.484 180.853 25.82C179.197 26.156 177.505 26.324 175.777 26.324C173.137 26.324 170.845 25.796 168.901 24.74C166.957 23.684 165.469 22.172 164.437 20.204C163.405 18.236 162.889 15.884 162.889 13.148C162.889 10.46 163.405 8.132 164.437 6.164C165.469 4.196 166.933 2.684 168.829 1.628C170.749 0.571999 172.993 0.0439994 175.561 0.0439994C177.361 0.0439994 179.041 0.307999 180.601 0.835998C182.185 1.364 183.505 2.108 184.561 3.068L182.977 6.452C181.777 5.516 180.601 4.844 179.449 4.436C178.297 4.028 177.037 3.824 175.669 3.824C173.029 3.824 171.025 4.616 169.657 6.2C168.313 7.784 167.641 10.1 167.641 13.148C167.641 16.292 168.337 18.668 169.729 20.276C171.121 21.86 173.197 22.652 175.957 22.652C177.637 22.652 179.293 22.424 180.925 21.968V15.488H175.381V12.14H185.101Z" fill="#555555"/>
</svg>
