<svg width="20" height="16" viewBox="0 0 20 16" fill="none" xmlns="http://www.w3.org/2000/svg">
<path d="M18.8992 5.69511C17.6439 3.64829 14.7885 0.214233 9.77697 0.214233C4.76546 0.214233 1.91006 3.64829 0.654754 5.69511C0.266692 6.32351 0.0611382 7.0477 0.0611382 7.7865C0.0611382 8.5253 0.266692 9.2495 0.654754 9.87789C1.91006 11.9247 4.76546 15.3588 9.77697 15.3588C14.7885 15.3588 17.6439 11.9247 18.8992 9.87789C19.2872 9.2495 19.4928 8.5253 19.4928 7.7865C19.4928 7.0477 19.2872 6.32351 18.8992 5.69511ZM17.5192 9.02951C16.4412 10.7846 14.001 13.7382 9.77697 13.7382C5.55296 13.7382 3.11276 10.7846 2.0347 9.02951C1.80414 8.65599 1.68203 8.22558 1.68203 7.7865C1.68203 7.34742 1.80414 6.91701 2.0347 6.5435C3.11276 4.78839 5.55296 1.83484 9.77697 1.83484C14.001 1.83484 16.4412 4.78514 17.5192 6.5435C17.7498 6.91701 17.8719 7.34742 17.8719 7.7865C17.8719 8.22558 17.7498 8.65599 17.5192 9.02951Z" fill="#757575"/>
</svg>
